Coordinates
nRows=150
nColumns=2
inDegrees=yes
endheader
time	ankle_angle_r	
1.6249	 -4.898167	
1.68739	 -4.711636	
1.74989	 -4.647904	
1.81238	 -4.615020	
1.87488	 -4.599231	
1.93738	 -4.622895	
1.99987	 -4.640585	
2.06237	 -4.653634	
2.12486	 -4.617918	
2.18736	 -4.551374	
2.24986	 -4.547320	
2.31235	 -4.556270	
2.37485	 -4.566544	
2.43734	 -4.613667	
2.49984	 -4.648071	
2.56234	 -4.656926	
2.62483	 -4.621538	
2.68733	 -4.562082	
2.74982	 -4.557064	
2.81232	 -4.592993	
2.87482	 -4.632254	
2.93731	 -4.651873	
2.99981	 -4.667396	
3.0623	 -4.710972	
3.1248	 -4.740608	
3.1873	 -4.758793	
3.24979	 -4.769489	
3.31229	 -4.750832	
3.37478	 -4.772785	
3.43728	 -4.804805	
3.49978	 -4.779380	
3.56227	 -4.780587	
3.62477	 -4.784286	
3.68726	 -4.739427	
3.74976	 -4.719274	
3.81226	 -4.700365	
3.87475	 -4.695247	
3.93725	 -4.755651	
3.99974	 -4.784764	
4.06224	 -4.733408	
4.12474	 -4.641467	
4.18723	 -4.573508	
4.24973	 -4.562236	
4.31222	 -4.546323	
4.37472	 -4.560904	
4.43722	 -4.639169	
4.49971	 -4.676352	
4.56221	 -4.656971	
4.6247	 -4.618284	
4.6872	 -4.583987	
4.7497	 -4.578752	
4.81219	 -4.552246	
4.87469	 -4.542978	
4.93718	 -4.596920	
4.99968	 -4.635387	
5.06218	 -4.654675	
5.12467	 -4.631995	
5.18717	 -4.572839	
5.24966	 -4.586074	
5.31216	 -4.616150	
5.37466	 -4.611628	
5.43715	 -4.619735	
5.49965	 -4.633453	
5.56214	 -4.670131	
5.62464	 -4.663593	
5.68714	 -4.581639	
5.74963	 -4.549933	
5.81213	 -4.560025	
5.87462	 -4.579739	
5.93712	 -4.620441	
5.99962	 -4.627234	
6.06211	 -4.632940	
6.12461	 -4.626659	
6.1871	 -4.575797	
6.2496	 -4.561879	
6.3121	 -4.571770	
6.37459	 -4.592851	
6.43709	 -4.641574	
6.49958	 -4.652385	
6.56208	 -4.646675	
6.62458	 -4.636707	
6.68707	 -4.607270	
6.74957	 -4.622895	
6.81206	 -4.662892	
6.87456	 -4.703586	
6.93706	 -4.749776	
6.99955	 -4.768744	
7.06205	 -4.801194	
7.12454	 -4.818374	
7.18704	 -4.773579	
7.24954	 -4.760832	
7.31203	 -4.781750	
7.37453	 -4.790311	
7.43702	 -4.809835	
7.49952	 -4.815895	
7.56202	 -4.816907	
7.62451	 -4.806207	
7.68701	 -4.767557	
7.7495	 -4.760811	
7.812	 -4.732939	
7.8745	 -4.681851	
7.93699	 -4.724103	
7.99949	 -4.795416	
8.06198	 -4.821114	
8.12448	 -4.809949	
8.18698	 -4.758235	
8.24947	 -4.759771	
8.31197	 -4.802893	
8.37446	 -4.776893	
8.43696	 -4.736984	
8.49946	 -4.704749	
8.56195	 -4.662186	
8.62445	 -4.643812	
8.68694	 -4.603501	
8.74944	 -4.560157	
8.81194	 -4.564101	
8.87443	 -4.570694	
8.93693	 -4.596422	
8.99942	 -4.635476	
9.06192	 -4.635170	
9.12442	 -4.631715	
9.18691	 -4.627264	
9.24941	 -4.596196	
9.3119	 -4.562724	
9.3744	 -4.548509	
9.4369	 -4.582093	
9.49939	 -4.634539	
9.56189	 -4.657036	
9.62438	 -4.664835	
9.68688	 -4.653462	
9.74938	 -4.626300	
9.81187	 -4.583800	
9.87437	 -4.552042	
9.93686	 -4.632241	
9.99936	 -4.723832	
10.0619	 -4.685162	
10.1244	 -4.641724	
10.1868	 -4.626786	
10.2493	 -4.582740	
10.3118	 -4.562971	
10.3743	 -4.556240	
10.4368	 -4.570934	
10.4993	 -4.618027	
10.5618	 -4.645410	
10.6243	 -4.664349	
10.6868	 -4.639818	
10.7493	 -4.573259	
10.8118	 -4.565770	
10.8743	 -4.586393	
10.9368	 -4.562240	
